<svg width="413" height="114" viewBox="0 0 413 114" fill="none" xmlns="http://www.w3.org/2000/svg">
<g clip-path="url(#clip0)">
<path d="M111.78 51.9773L62.0349 2.23844C59.1727 -0.626356 54.5267 -0.626356 51.6609 2.23844L41.3319 12.5684L54.4339 25.6704C57.4798 24.642 60.971 25.3316 63.3978 27.7588C65.8372 30.2012 66.5218 33.7222 65.4676 36.7783L78.0956 49.4063C81.1507 48.3535 84.6756 49.0337 87.1151 51.4775C90.5257 54.8871 90.5257 60.412 87.1151 63.8225C83.704 67.2341 78.1791 67.2341 74.7661 63.8225C72.2016 61.256 71.5673 57.488 72.8662 54.3283L61.0892 42.5513L61.0882 73.5423C61.9197 73.954 62.7044 74.5033 63.3973 75.1932C66.8069 78.6024 66.8069 84.1263 63.3973 87.5412C59.9867 90.9503 54.4593 90.9503 51.0523 87.5412C47.6422 84.1266 47.6422 78.6027 51.0523 75.1932C51.895 74.352 52.8702 73.7152 53.9107 73.2884V42.0094C52.8697 41.5844 51.8957 40.9524 51.0517 40.1044C48.4687 37.5234 47.8466 33.7324 49.1713 30.5605L36.2553 17.6425L2.14928 51.7475C-0.716425 54.6145 -0.716425 59.2605 2.14928 62.1255L51.8913 111.865C54.7551 114.729 59.3995 114.729 62.2673 111.865L111.779 62.3605C114.644 59.4943 114.644 54.8469 111.779 51.9815" fill="#F05133"/>
<path d="M193.996 54.808C193.996 60.52 192.806 65.756 190.426 70.516C188.114 75.276 184.68 79.084 180.124 81.94C175.636 84.728 170.264 86.122 164.008 86.122C162.648 86.122 161.22 85.986 159.724 85.714C158.296 85.51 157.14 85.238 156.256 84.898L156.562 93.364V102.646L166.048 103.87V109.684H135.754V103.87L142.384 102.646V37.978L135.754 36.142V29.104L152.584 26.962H152.788L155.338 29.002V34.714C157.038 32.606 159.35 30.77 162.274 29.206C165.198 27.642 168.394 26.86 171.862 26.86C178.322 26.86 183.626 29.172 187.774 33.796C191.922 38.352 193.996 45.356 193.996 54.808ZM166.558 35.326C164.518 35.326 162.58 35.768 160.744 36.652C158.908 37.536 157.514 38.522 156.562 39.61V77.452C157.038 78.132 157.99 78.71 159.418 79.186C160.914 79.662 162.546 79.9 164.314 79.9C168.734 79.9 172.236 77.996 174.82 74.188C177.472 70.312 178.798 64.26 178.798 56.032C178.798 49.096 177.676 43.928 175.432 40.528C173.188 37.06 170.23 35.326 166.558 35.326ZM201.214 69.088C201.214 62.9 204.308 58.242 210.496 55.114C216.752 51.986 224.81 50.388 234.67 50.32V47.974C234.67 45.186 234.364 43.01 233.752 41.446C233.208 39.882 232.154 38.726 230.59 37.978C229.094 37.162 226.884 36.754 223.96 36.754C220.628 36.754 217.636 37.196 214.984 38.08C212.332 38.896 209.578 39.984 206.722 41.344L203.56 34.816C204.58 33.932 206.28 32.878 208.66 31.654C211.108 30.43 213.998 29.376 217.33 28.492C220.662 27.54 224.096 27.064 227.632 27.064C232.868 27.064 236.948 27.744 239.872 29.104C242.864 30.464 245.006 32.64 246.298 35.632C247.59 38.624 248.236 42.636 248.236 47.668V78.88H253.744V84.592C252.384 84.932 250.446 85.272 247.93 85.612C245.414 85.952 243.204 86.122 241.3 86.122C238.988 86.122 237.424 85.782 236.608 85.102C235.86 84.422 235.486 83.028 235.486 80.92V78.166C233.65 80.206 231.27 82.042 228.346 83.674C225.422 85.306 222.124 86.122 218.452 86.122C215.324 86.122 212.434 85.476 209.782 84.184C207.198 82.824 205.124 80.886 203.56 78.37C201.996 75.786 201.214 72.692 201.214 69.088ZM224.98 77.656C226.408 77.656 228.04 77.248 229.876 76.432C231.712 75.548 233.31 74.494 234.67 73.27V56.542C228.55 56.542 223.96 57.596 220.9 59.704C217.908 61.744 216.412 64.396 216.412 67.66C216.412 70.924 217.16 73.406 218.656 75.106C220.22 76.806 222.328 77.656 224.98 77.656ZM260.11 78.982L266.842 78.166V37.978L260.314 36.142V29.104L276.124 26.962H276.43L278.98 29.002V31.246L278.674 39.508H278.98C279.456 38.148 280.578 36.482 282.346 34.51C284.114 32.47 286.324 30.702 288.976 29.206C291.696 27.642 294.62 26.86 297.748 26.86C299.244 26.86 300.536 27.064 301.624 27.472V42.772C299.584 41.344 297.102 40.63 294.178 40.63C289.214 40.63 284.896 41.956 281.224 44.608V78.064L293.056 78.982V85H260.11V78.982ZM319.443 76.636C319.987 77.452 321.211 78.234 323.115 78.982C325.087 79.662 327.059 80.002 329.031 80.002C332.227 80.002 334.607 79.356 336.171 78.064C337.803 76.704 338.619 74.936 338.619 72.76C338.619 70.516 337.633 68.714 335.661 67.354C333.689 65.926 330.357 64.192 325.665 62.152L322.809 60.928C318.117 58.956 314.615 56.576 312.303 53.788C309.991 51 308.835 47.396 308.835 42.976C308.835 39.916 309.753 37.196 311.589 34.816C313.425 32.368 316.009 30.464 319.341 29.104C322.673 27.744 326.515 27.064 330.867 27.064C334.063 27.064 336.783 27.268 339.027 27.676C341.339 28.084 343.753 28.628 346.269 29.308C347.629 29.784 348.649 30.056 349.329 30.124V43.486H341.271L338.925 35.734C338.517 35.054 337.599 34.442 336.171 33.898C334.743 33.354 333.111 33.082 331.275 33.082C328.487 33.082 326.243 33.694 324.543 34.918C322.911 36.074 322.095 37.706 322.095 39.814C322.095 41.718 322.673 43.316 323.829 44.608C324.985 45.832 326.243 46.784 327.603 47.464C328.963 48.144 331.479 49.266 335.151 50.83C338.823 52.394 341.849 53.89 344.229 55.318C346.677 56.746 348.683 58.616 350.247 60.928C351.879 63.172 352.695 65.926 352.695 69.19C352.695 74.222 350.723 78.302 346.779 81.43C342.835 84.558 337.157 86.122 329.745 86.122C326.277 86.122 323.149 85.816 320.361 85.204C317.641 84.592 314.479 83.776 310.875 82.756L308.631 82.042V68.578H317.097L319.443 76.636ZM386.718 86.122C377.742 86.122 371.044 83.504 366.624 78.268C362.272 72.964 360.096 65.756 360.096 56.644C360.096 50.524 361.218 45.22 363.462 40.732C365.774 36.244 369.004 32.81 373.152 30.43C377.3 28.05 382.094 26.86 387.534 26.86C394.334 26.86 399.57 28.662 403.242 32.266C406.914 35.802 408.818 40.868 408.954 47.464C408.954 51.952 408.682 55.284 408.138 57.46H374.988C375.26 63.648 376.722 68.476 379.374 71.944C382.026 75.344 385.8 77.044 390.696 77.044C393.348 77.044 396.068 76.602 398.856 75.718C401.712 74.834 403.956 73.78 405.588 72.556L408.138 78.166C406.302 80.138 403.31 81.974 399.162 83.674C395.082 85.306 390.934 86.122 386.718 86.122ZM394.674 51.34C394.81 49.436 394.878 47.974 394.878 46.954C394.878 37.91 391.852 33.388 385.8 33.388C382.468 33.388 379.884 34.714 378.048 37.366C376.212 40.018 375.192 44.676 374.988 51.34H394.674Z" fill="#F05133"/>
</g>
<defs>
<clipPath id="clip0">
<rect width="413" height="114" fill="white"/>
</clipPath>
</defs>
</svg>
