<svg width="1800" height="700" viewBox="0 0 1800 700" fill="none" xmlns="http://www.w3.org/2000/svg">
<path fill-rule="evenodd" clip-rule="evenodd" d="M508.533 214.65C541.711 155.588 497.324 136.375 450.092 143.58C450.092 143.58 446.001 117.429 445.468 116.184C485.05 104.531 520.63 101.24 545.98 109.868C616.25 142.157 611.802 253.788 413.891 387.123C337.974 438.268 292.564 459.349 234.302 438.268C188.049 454.457 148.2 451.255 116 425.193C250.046 414.875 430.614 315.785 508.533 214.65ZM204.86 261.349L217.136 269.799C171.772 311.338 142.418 354.923 150.602 387.212C137.259 351.009 161.72 305.378 204.86 261.349Z" fill="#5A60F3"/>
<path d="M562.895 395.66C521.364 482.82 429.439 538.606 325.819 569.312C412.821 572.181 533.224 546.566 588.242 448.398C576.033 456.824 568.303 459.429 557.347 458.829C565.5 441 567 410.5 562.895 395.66Z" fill="#5A60F3"/>
<path fill-rule="evenodd" clip-rule="evenodd" d="M474.5 553.62C480.66 566.626 486.824 578.947 490.931 587.846C491.615 589.899 491.607 591.953 489.554 592.637C488.185 594.007 486.139 594.007 484.086 592.637L441.637 563.887C453.274 561.149 464.232 557.727 474.5 553.62ZM395.78 533.084L331.432 489.275L362.917 430.406C379.346 422.192 395.09 411.924 410.834 400.287L477.24 431.091L332.114 489.275L431.369 462.578C431.369 462.578 439.589 480.376 450.541 502.965C433.428 513.918 415.631 524.185 395.78 533.084ZM477.24 431.091L421.102 392.073C432.739 383.174 449.178 370.852 466.291 357.162L477.24 431.091ZM452.6 263.383C429.327 283.234 399.881 303.769 376.608 318.829C365.655 325.674 354.711 332.519 343.759 338.68L189.06 231.895L432.747 122.371L452.6 263.383Z" fill="#F5B523"/>
<path d="M739.115 333.016C724.331 333.016 711.083 330.616 699.371 325.816C687.659 321.016 678.251 313.912 671.147 304.504C664.235 295.096 660.587 283.768 660.203 270.52H712.619C713.387 278.008 715.979 283.768 720.395 287.8C724.811 291.64 730.571 293.56 737.675 293.56C744.971 293.56 750.731 291.928 754.955 288.664C759.179 285.208 761.291 280.504 761.291 274.552C761.291 269.56 759.563 265.432 756.107 262.168C752.843 258.904 748.715 256.216 743.723 254.104C738.923 251.992 732.011 249.592 722.987 246.904C709.931 242.872 699.275 238.84 691.019 234.808C682.763 230.776 675.659 224.824 669.707 216.952C663.755 209.08 660.779 198.808 660.779 186.136C660.779 167.32 667.595 152.632 681.227 142.072C694.859 131.32 712.619 125.944 734.507 125.944C756.779 125.944 774.731 131.32 788.363 142.072C801.995 152.632 809.291 167.416 810.251 186.424H756.971C756.587 179.896 754.187 174.808 749.771 171.16C745.355 167.32 739.691 165.4 732.779 165.4C726.827 165.4 722.027 167.032 718.379 170.296C714.731 173.368 712.907 177.88 712.907 183.832C712.907 190.36 715.979 195.448 722.123 199.096C728.267 202.744 737.867 206.68 750.923 210.904C763.979 215.32 774.539 219.544 782.603 223.576C790.859 227.608 797.963 233.464 803.915 241.144C809.867 248.824 812.843 258.712 812.843 270.808C812.843 282.328 809.867 292.792 803.915 302.2C798.155 311.608 789.707 319.096 778.571 324.664C767.435 330.232 754.283 333.016 739.115 333.016ZM988.591 128.824V168.28H935.023V331H885.775V168.28H832.207V128.824H988.591ZM1108.92 333.016C1089.92 333.016 1072.44 328.6 1056.51 319.768C1040.76 310.936 1028.19 298.648 1018.78 282.904C1009.56 266.968 1004.96 249.112 1004.96 229.336C1004.96 209.56 1009.56 191.8 1018.78 176.056C1028.19 160.312 1040.76 148.024 1056.51 139.192C1072.44 130.36 1089.92 125.944 1108.92 125.944C1127.93 125.944 1145.31 130.36 1161.05 139.192C1176.99 148.024 1189.47 160.312 1198.49 176.056C1207.71 191.8 1212.32 209.56 1212.32 229.336C1212.32 249.112 1207.71 266.968 1198.49 282.904C1189.28 298.648 1176.8 310.936 1161.05 319.768C1145.31 328.6 1127.93 333.016 1108.92 333.016ZM1108.92 288.088C1125.05 288.088 1137.92 282.712 1147.52 271.96C1157.31 261.208 1162.2 247 1162.2 229.336C1162.2 211.48 1157.31 197.272 1147.52 186.712C1137.92 175.96 1125.05 170.584 1108.92 170.584C1092.6 170.584 1079.55 175.864 1069.76 186.424C1060.16 196.984 1055.36 211.288 1055.36 229.336C1055.36 247.192 1060.16 261.496 1069.76 272.248C1079.55 282.808 1092.6 288.088 1108.92 288.088ZM1342.82 331L1300.77 254.68H1288.96V331H1239.71V128.824H1322.37C1338.31 128.824 1351.84 131.608 1362.98 137.176C1374.31 142.744 1382.75 150.424 1388.32 160.216C1393.89 169.816 1396.67 180.568 1396.67 192.472C1396.67 205.912 1392.83 217.912 1385.15 228.472C1377.67 239.032 1366.53 246.52 1351.75 250.936L1398.4 331H1342.82ZM1288.96 219.832H1319.49C1328.51 219.832 1335.23 217.624 1339.65 213.208C1344.26 208.792 1346.56 202.552 1346.56 194.488C1346.56 186.808 1344.26 180.76 1339.65 176.344C1335.23 171.928 1328.51 169.72 1319.49 169.72H1288.96V219.832ZM1656.55 128.824V331H1607.3V209.752L1562.08 331H1522.34L1476.84 209.464V331H1427.59V128.824H1485.76L1542.5 268.792L1598.66 128.824H1656.55ZM841.067 378.824V581H791.819V497.768H715.211V581H665.963V378.824H715.211V458.024H791.819V378.824H841.067ZM1002.48 545.288H927.02L914.924 581H863.372L936.524 378.824H993.548L1066.7 581H1014.57L1002.48 545.288ZM989.804 507.272L964.748 433.256L939.98 507.272H989.804ZM1080.61 479.624C1080.61 459.656 1084.93 441.896 1093.57 426.344C1102.21 410.6 1114.21 398.408 1129.57 389.768C1145.12 380.936 1162.69 376.52 1182.28 376.52C1206.28 376.52 1226.82 382.856 1243.91 395.528C1261 408.2 1272.42 425.48 1278.18 447.368H1224.04C1220 438.92 1214.24 432.488 1206.76 428.072C1199.46 423.656 1191.11 421.448 1181.7 421.448C1166.53 421.448 1154.24 426.728 1144.84 437.288C1135.43 447.848 1130.72 461.96 1130.72 479.624C1130.72 497.288 1135.43 511.4 1144.84 521.96C1154.24 532.52 1166.53 537.8 1181.7 537.8C1191.11 537.8 1199.46 535.592 1206.76 531.176C1214.24 526.76 1220 520.328 1224.04 511.88H1278.18C1272.42 533.768 1261 551.048 1243.91 563.72C1226.82 576.2 1206.28 582.44 1182.28 582.44C1162.69 582.44 1145.12 578.12 1129.57 569.48C1114.21 560.648 1102.21 548.456 1093.57 532.904C1084.93 517.352 1080.61 499.592 1080.61 479.624ZM1425.55 581L1357.59 491.72V581H1308.34V378.824H1357.59V467.528L1424.98 378.824H1482.87L1404.53 477.896L1485.75 581H1425.55ZM1582.3 583.016C1567.52 583.016 1554.27 580.616 1542.56 575.816C1530.85 571.016 1521.44 563.912 1514.33 554.504C1507.42 545.096 1503.77 533.768 1503.39 520.52H1555.81C1556.57 528.008 1559.17 533.768 1563.58 537.8C1568 541.64 1573.76 543.56 1580.86 543.56C1588.16 543.56 1593.92 541.928 1598.14 538.664C1602.37 535.208 1604.48 530.504 1604.48 524.552C1604.48 519.56 1602.75 515.432 1599.29 512.168C1596.03 508.904 1591.9 506.216 1586.91 504.104C1582.11 501.992 1575.2 499.592 1566.17 496.904C1553.12 492.872 1542.46 488.84 1534.21 484.808C1525.95 480.776 1518.85 474.824 1512.89 466.952C1506.94 459.08 1503.97 448.808 1503.97 436.136C1503.97 417.32 1510.78 402.632 1524.41 392.072C1538.05 381.32 1555.81 375.944 1577.69 375.944C1599.97 375.944 1617.92 381.32 1631.55 392.072C1645.18 402.632 1652.48 417.416 1653.44 436.424H1600.16C1599.77 429.896 1597.37 424.808 1592.96 421.16C1588.54 417.32 1582.88 415.4 1575.97 415.4C1570.01 415.4 1565.21 417.032 1561.57 420.296C1557.92 423.368 1556.09 427.88 1556.09 433.832C1556.09 440.36 1559.17 445.448 1565.31 449.096C1571.45 452.744 1581.05 456.68 1594.11 460.904C1607.17 465.32 1617.73 469.544 1625.79 473.576C1634.05 477.608 1641.15 483.464 1647.1 491.144C1653.05 498.824 1656.03 508.712 1656.03 520.808C1656.03 532.328 1653.05 542.792 1647.1 552.2C1641.34 561.608 1632.89 569.096 1621.76 574.664C1610.62 580.232 1597.47 583.016 1582.3 583.016Z" fill="#5A60F3"/>
</svg>
