<svg width="80" height="83" viewBox="0 0 80 83" fill="none" xmlns="http://www.w3.org/2000/svg">
<path d="M33.336 47L31.992 42.728H26.04L24.72 47H21.504L27.12 30.248H31.056L36.624 47H33.336ZM29.064 33.128H28.944L26.808 40.016H31.224L29.064 33.128ZM45.213 39.416L42.981 42.056V47H39.813V30.248H42.981V38.504H43.101L45.477 35.36L49.629 30.248H53.277L47.445 37.232L53.757 47H49.989L45.213 39.416Z" fill="#656565"/>
<path d="M46.4028 2.47301C43.094 1.51411 39.5951 1 35.9756 1C33.7319 1 31.5345 1.19756 29.4 1.57616L29.5408 2.11783C31.63 1.74982 33.7802 1.55784 35.9756 1.55784C39.47 1.55784 42.8502 2.04423 46.0516 2.95271L46.4028 2.47301Z" stroke="#656565" stroke-width="2"/>
<path d="M62.0407 12.3797L62.3741 11.9242C69.0804 18.6326 73.2254 27.8825 73.2254 38.0966C73.2254 41.9971 72.621 45.757 71.5002 49.2885L70.9608 49.1439C72.0697 45.6585 72.6678 41.947 72.6678 38.0966C72.6678 28.0683 68.6105 18.9826 62.0407 12.3797Z" stroke="#656565" stroke-width="2"/>
<path d="M65.3783 59.9583C58.6875 68.8677 48.0086 74.6353 35.9756 74.6353C26.6047 74.6353 18.0551 71.1375 11.5707 65.3818L11.2271 65.8226C17.8071 71.6519 26.4761 75.1932 35.9756 75.1932C48.2706 75.1932 59.1744 69.2609 65.9583 60.1137L65.3783 59.9583Z" stroke="#656565" stroke-width="2"/>
<path d="M5.05959 58.7966L5.4205 58.3337C4.39729 56.8048 3.48672 55.1946 2.70061 53.5152L2 53.3274C2.86695 55.2424 3.89236 57.071 5.05959 58.7966Z" stroke="#656565" stroke-width="2"/>
<path d="M3.33229 20.2127L3.8878 20.3616C8.75129 11.6541 17.0852 5.13254 27.0291 2.65161L26.8888 2.11161C16.7499 4.64276 8.25933 11.3122 3.33229 20.2127Z" stroke="#656565" stroke-width="2"/>
<path d="M78.0898 43.3784C76.3055 64.4356 58.0347 85.7497 29.8296 80.0798" stroke="#7198FF" stroke-width="3"/>
</svg>
