<svg width="1080" height="1080" viewBox="0 0 1080 1080" fill="none" xmlns="http://www.w3.org/2000/svg">
<path d="M540.194 1040C809.264 1040 1027.39 816.142 1027.39 540C1027.39 263.858 809.264 40 540.194 40C271.124 40 53 263.858 53 540C53 816.142 271.124 1040 540.194 1040Z" fill="#273579"/>
<path d="M438.018 897.382L599.601 669.548L494.766 459.49L702.093 357.336L572.603 136.717L1013.44 658.779C1037.51 557.752 1030.29 451.536 992.781 354.92C955.269 258.304 889.334 176.097 804.157 119.748C718.98 63.398 618.802 35.7101 517.571 40.5395C416.34 45.3689 319.097 82.4751 239.381 146.691C159.665 210.907 101.445 299.037 72.8282 398.808C44.2114 498.579 46.6219 605.025 79.7243 703.323C112.827 801.622 174.973 886.881 257.51 947.227C340.046 1007.57 438.865 1040 540.205 1040H548.865L438.018 897.382Z" fill="#5D8BC8"/>
<path d="M702.221 357.163L570.074 126.86L399.325 574.521L702.221 357.163Z" fill="#FFCA61"/>
<path d="M535.745 476.526L702.221 689.221L399.325 575.728L535.745 476.526Z" fill="url(#paint0_linear)"/>
<path d="M702.221 689.289L438.301 897.461L518.606 620.178L702.221 689.289Z" fill="#FFCA61"/>
<defs>
<linearGradient id="paint0_linear" x1="612.758" y1="742.182" x2="476.43" y2="511.603" gradientUnits="userSpaceOnUse">
<stop stop-color="#FAAF40"/>
<stop offset="0.28" stop-color="#FAAB3D"/>
<stop offset="0.57" stop-color="#FC9E34"/>
<stop offset="0.87" stop-color="#FE8A26"/>
<stop offset="1" stop-color="#FF7E1E"/>
</linearGradient>
</defs>
</svg>
